<?xml version="1.0" encoding="utf-8"?>
<!-- Generator: Adobe Illustrator 23.0.1, SVG Export Plug-In . SVG Version: 6.00 Build 0)  -->
<svg version="1.1" id="Vectorportal.com" xmlns="http://www.w3.org/2000/svg" xmlns:xlink="http://www.w3.org/1999/xlink" x="0px"
	 y="0px" viewBox="0 0 660 660" style="enable-background:new 0 0 660 660;" xml:space="preserve">
<g>
	<path d="M586.17,321.55h35.3l-0.12-14.8l-1.32-155.09l-6.14,0.16v-45.89H602.9V91.86h-15.72v-8.21H549.1
		v8.21h-15.89v14.08h-57.34V81.56H349.52v24.38h-14.85v-8.58h-20.2c3.28-0.96,6.31-2.17,8.96-3.65c7.63-4.25,11.9-10.51,12.35-18.08
		l0.12-1.99l-1.49-1.33c-2.67-2.38-7.43-4.94-13.45-8.17c-6.32-3.39-14.18-7.61-21.63-12.75c-12.5-8.63-41.18-18.95-47.74-15.98
		c-5.08,2.31-40.65,7.23-61.87,9.79l-1.2,0.14l-35.38,29.23c-1.64-0.6-2.62-0.96-2.7-0.99l-2.41-0.89l-1.86,1.77
		c-5.51,5.25-15.44,18.15-26.95,33.08c-20.04,26-47.47,61.6-59.88,66.88c-9.25,3.93-9.45,12.82-9.64,21.43
		c-0.18,8.12-0.39,17.31-7.35,25.54c-12.41,14.69-10.08,40.13-4.67,49.08c8.37,13.86,20,96.74,24.96,132.13
		c1.35,9.62,2.24,15.98,2.67,18.25c1.82,9.7,21.64,59.6,53.82,72.72c5.36,2.19,10.77,3.28,16.22,3.28c9.63,0,19.35-3.41,29.07-10.21
		c47.17-33.02,45.73-36.17,44.06-39.83c-0.11-0.25-0.24-0.48-0.39-0.69c1.03-4.49,1.45-9.32,1.39-14.34
		c0.24,0.69,0.44,1.31,0.56,1.74c-0.29,3.61,6.11,12.38,55.3,67.11c1.67,1.86,2.89,3.22,3.5,3.91c2.96,3.33,31.9,29.43,60.6,54.06
		c58.52,50.23,63.26,49.6,66.12,49.23c1.06-0.14,1.99-0.59,2.71-1.28c3.57-0.34,15.89,2.4,26.83,4.83
		c19.1,4.25,42.86,9.54,61.79,9.54c9.74,0,18.21-1.4,24.1-5.06c27-16.78,75.78-83.37,82.86-113.1c6.95-29.2-3.58-124.24-4.03-128.26
		C587.59,354.11,586.52,336.63,586.17,321.55 M318.46,215.64c0-51.96,42.28-94.24,94.24-94.24c51.96,0,94.24,42.27,94.24,94.24
		c0,51.96-42.28,94.24-94.24,94.24C360.73,309.88,318.46,267.6,318.46,215.64 M219.73,223.77c-0.44-6.92,1.55-12.5,5.25-14.57
		c3.15-1.77,7.34-1,12.13,2.15c-0.34,0.43-0.71,0.86-1.12,1.31C231.55,217.44,224.41,222,219.73,223.77 M238.31,209.66
		c-6.92-4.59-11.61-3.8-14.34-2.26c-4.5,2.52-6.85,8.77-6.28,16.71l1.38-0.1c-1.03,0.34-1.91,0.54-2.58,0.54
		c-1.69,0-4.35-2.64-7.23-6.39c-3.73-5.99-6.6-10.53-8.13-12.96c-0.11-2.69,0.01-11.01,5.22-15.91c3.97-3.73,10.33-4.89,18.89-3.43
		c1.31,0.22,2.59,0.57,3.87,0.97c3.82,5.58,9.98,15.19,10.31,19.57C239.48,207.29,239.09,208.4,238.31,209.66 M209.63,245.82
		c-1.33-1.21-2.92-2.17-4.75-2.64c-2.52-0.7-5.38-0.24-7.65,1.12c-4.28,2.59-6.37,7.66-5.92,12.23c-2.97,0.97-4.91,1.14-5.53,0.76
		c-1.47-0.88-3.84-4.62-6.38-9.35c-6.87-17.18-8.37-27.52-4.42-30.78c7.12-5.88,16.63-3.18,21.5-1.15
		c6.61,10.03,15.02,24.1,15.02,27.25C211.48,243.72,210.85,244.63,209.63,245.82 M209.14,246.27c-2.07,1.92-5.47,4.43-10.25,6.96
		c-2.82,1.49-5.25,2.53-7.25,3.2c0.43-2,1.1-3.88,2.07-5.57c1.15-1.97,2.68-3.7,4.58-4.8c1.87-1.14,4.07-1.6,6.28-1.31
		C206.13,244.95,207.65,245.52,209.14,246.27 M231.77,380.69c1.79,4.3,2.92,7.34,3.08,8.5c0,2.57,1.83,5.6,7.66,12.08
		c-1.59,2.81-3.75,5.23-5.99,7.5c-2.42,2.4-5.01,4.62-7.69,6.73c-2.68,2.11-5.44,4.11-8.26,6.01c-1.41,0.95-2.83,1.88-4.27,2.77
		l-0.76,0.46c-0.67-1.82-1.51-3.97-2.52-6.53c0.88-1.15,1.75-2.31,2.68-3.43c2.71-3.26,5.61-6.4,8.75-9.3
		c-3.57,2.37-6.97,5.03-10.23,7.87c-0.79,0.68-1.53,1.42-2.3,2.13c-0.91-2.27-1.95-4.82-3.13-7.67c0.52-0.65,1-1.33,1.54-1.97
		c2.71-3.26,5.61-6.4,8.75-9.31c-3.57,2.37-6.97,5.03-10.23,7.87c-0.36,0.32-0.71,0.66-1.07,0.99
		c-7.86-18.93-21.36-50.31-44.31-102.83c-0.23-0.52-0.45-1.03-0.67-1.53c0.65,0.17,1.41,0.26,2.27,0.26
		c4.35,0,10.71-1.86,12.39-2.38c5.98-1.84,10.38-4.17,13.03-6.84c10.73,22.36,32.98,68.83,41.2,88.52
		c-0.01,0.02-0.03,0.03-0.04,0.05L231.77,380.69z M168.9,296.7c0.59-2.06,1.46-4,2.46-5.81c1.34-2.29,3.1-4.34,5.38-5.25
		c2.27-0.9,4.95-0.56,7.4,0.48c0.65,0.18,1.24,0.49,1.84,0.81l1.83,0.92c0.2,0.11,0.39,0.24,0.58,0.36
		c-0.34,0.46-0.74,0.93-1.27,1.4C182.91,293.34,174.46,295.74,168.9,296.7 M184.79,284.66c-2.49-1.43-5.81-2.08-8.81-0.93
		c-2.95,1.23-4.91,3.81-6.06,6.44c-0.92,2.11-1.46,4.36-1.51,6.61c-1.77,0.29-3.22,0.42-4.06,0.39c-1.35-3.09-5.87-14.25-9.11-22.29
		c-0.2-5.75,0.65-11.38,4.01-13.25c8.44-4.68,15.29-0.4,17.71,1.51c0.34,0.74,0.68,1.46,1,2.15c1.08,2.33,2.01,4.34,2.4,5.37
		c0.35,0.92,2.2,4.79,7.62,16.08C186.95,286.01,185.99,285.16,184.79,284.66 M283.98,149.44c0.26,0.26,0.52,0.52,0.78,0.78
		c-0.76,1.61-1.95,3.22-3.62,4.48c-2.31,1.73-5.15,2.46-8.31,2.19c2.31-3.43,5.84-7.54,8.86-9.7c0.73,0.71,1.46,1.43,2.19,2.15v0.1
		H283.98z M338.87,133.71c-3.41,3.07-6.61,6.37-9.61,9.84h-39.5v-19.57h49.11V133.71z M271.62,158.81c0.87,0.13,1.71,0.21,2.49,0.21
		c3.77,0,6.49-1.35,8.26-2.68c1.73-1.3,3.02-2.94,3.92-4.61c7.92,7.88,15.75,15.98,22.41,23.09c-3.15,4.87-7.27,8.33-11.69,10.81
		c-5.31-3.43-14.56-12.36-19.97-17.58c-3.49-3.37-5.54-5.34-6.68-6.22C270.42,161.17,270.89,160.09,271.62,158.81 M283.02,264.03
		c2-1,4.32-1.6,6.58-1.37c3,0.31,5.4,1.96,7.17,4.9c-3.8,1.72-9.79,2.64-13.86,2.82C282.94,268.18,282.98,266.05,283.02,264.03
		 M298.56,266.57c-2.64-4.39-6.17-5.7-8.76-5.96c-2.32-0.23-4.65,0.26-6.74,1.14c0.14-6.81,0.32-11.99,0.51-13.51
		c0.16-1.28,1.65-4.21,4.98-6.63c2.54-1.85,6.74-3.77,12.6-3.09c2.23,7.16,0.85,22.12-0.99,26.31
		C299.89,265.47,299.31,266.05,298.56,266.57 M522.43,144.75h-2.71v-21.97h47.04v21.97h-15.15c-1.95-4.49-4.06-7.92-7.09-10.08
		l-1.68-1.19l-1.96,0.63C532.99,136.63,526.99,140.29,522.43,144.75 M586.7,104.3h-1.48v-6.27h1.48V104.3z M583.16,104.3h-1.48
		v-6.27h1.48V104.3z M553.35,98.04h1.48v6.27h-1.48V98.04z M556.9,98.04h1.48v6.27h-1.48V98.04z M560.44,98.04h1.48v6.27h-1.48
		V98.04z M563.98,98.04h1.48v6.27h-1.48V98.04z M567.52,98.04H569v6.27h-1.48V98.04z M571.06,98.04h1.48v6.27h-1.48V98.04z
		 M574.6,98.04h1.48v6.27h-1.48V98.04z M578.14,98.04h1.48v6.27h-1.48V98.04z M551.29,104.3h-1.48v-6.27h1.48V104.3z M539.25,145.92
		c1.32-0.37,2.33-0.81,3.14-1.27c1.78,3.1,3.44,7.77,5.38,13.24c1.97,5.56,4.24,11.97,7.38,19.02c-2.5,2.9-4.31,6.88-4.52,10.28
		C545.76,177.97,538.03,151.16,539.25,145.92 M553.19,190.33c-0.37-0.69-0.57-1.53-0.56-2.54c0.02-2.7,1.48-6.11,3.48-8.75
		c1.27,2.76,2.68,5.61,4.26,8.55C558.3,189.33,555.49,191.01,553.19,190.33 M586.05,313.31c0-0.81-0.01-1.61-0.01-2.41h27.11
		l0.02,2.41H586.05z M605.65,114.18v37.87l-20.48,0.55l-0.45-38.42H605.65z M596.72,104.3h-0.88v-6.27h0.88V104.3z M593.78,104.3
		h-1.48v-6.27h1.48V104.3z M590.24,104.3h-1.48v-6.27h1.48V104.3z M554.11,88.65h28.06v3.2h-28.06V88.65z M547.75,104.3h-1.48v-6.27
		h1.48V104.3z M544.21,104.3h-1.48v-6.27h1.48V104.3z M539.39,98.04h1.29v6.27h-1.29V98.04z M580.6,114.18l0.45,38.53l-26.13,0.7
		c-0.56-1.58-1.11-3.1-1.65-4.53h17.61v-30.21h-55.28v30.21h3.18c-1.2,1.59-2.26,3.25-3.19,4.97l-23.34-39.67H580.6z M487.51,114.18
		l-0.02,0.01l26.01,44.2c-0.97,2.46-1.71,5.02-2.29,7.66c-11.68-23.15-31.26-41.64-55.22-51.87H487.51z M369.41,114.18
		c-8.88,3.79-17.15,8.74-24.66,14.62V118.1h-60.88v19.72c-9.37-9.04-19.08-17.86-26.83-23.65H369.41z M241.69,90.38
		c6,2.88,13.36,5.26,21.28,6.97h-34.85C232.89,95.56,237.73,93.27,241.69,90.38 M273.13,105.93h-4.82v-7.55
		c1.59,0.28,3.2,0.52,4.82,0.75V105.93z M221.87,99.45c1.87-0.56,3.81-1.2,5.78-1.92v3.96C225.78,100.83,223.85,100.15,221.87,99.45
		 M326.61,76.77c-4.29,0.93-13.27-1.47-26.8-7.2c-1.52-0.64-2.2-0.93-2.4-0.95c-0.16-0.15-0.29-0.49-0.41-0.95
		c3.44-0.11,5.69-1.27,6.92-3.59c4.69,2.78,9.21,5.21,13.15,7.33C320.85,73.43,324.26,75.26,326.61,76.77 M302.15,63
		c-0.92,1.79-2.65,2.58-5.47,2.61c-0.15-1.76-0.13-4,0.1-6.02C298.57,60.79,300.36,61.92,302.15,63 M191.91,53.23
		c11.48-1.4,54.5-6.79,62.79-10.19c4.34-0.41,27.48,6.51,39.96,15.13c0.08,0.05,0.16,0.1,0.23,0.16c-0.6,3.8-0.45,8.62,0.42,10.72
		c0.34,0.82,0.81,1.32,1.42,1.49c0.22,0.06,1.22,0.48,2.28,0.93c8.84,3.74,18.86,7.52,25.45,7.52c0.84,0,1.61-0.09,2.33-0.22
		c-1.16,3.07-3.59,5.62-7.37,7.73c-17.9,9.99-56.9,5.8-76.26-4.63l-0.87-0.46l-3.69-14.76l0.45,15.26l-0.56,0.49
		c-8.72,7.63-26.44,11.19-30.83,11.98c-16.7-5.99-34.34-12.43-45.56-16.53L191.91,53.23z M199.33,447.01l-1.11,3.63
		c-4.02,3.82-13.97,12.06-38.52,29.24c-12.96,9.07-25.21,11.05-37.45,6.05c-28.64-11.68-47.22-58.03-48.83-66.61
		c-0.39-2.09-1.32-8.71-2.61-17.88c-8.43-60.06-17.29-117.51-25.19-133.6l-0.02-0.58l0.15-2.04c0.01-0.68,0.19-1.32,0.3-1.97
		l0.18-0.97l0.33-0.9c1.58-4.95,6.43-7.44,11.75-8.11c5.32-0.8,10.98-0.37,16.59,0.28c5.62,0.7,11.25,1.71,16.96,2.77
		c-5.17-2.69-10.7-4.6-16.41-5.93c-5.7-1.32-11.66-2.01-17.76-1.19c-3.02,0.49-6.13,1.39-8.84,3.28c-2.69,1.89-4.74,4.87-5.38,8.01
		c-0.13,0.62-0.21,1.23-0.28,1.84c-2.05-7.05-2.66-19.57,1.65-29.35c0.81-0.99,1.61-1.99,2.38-3.01c3.87-4.92,7.06-10.6,10.21-15.45
		c0.8-1.16,1.62-2.19,2.38-2.84c0.77-0.6,1.39-0.86,2.44-0.94c1.06-0.06,2.29,0.17,3.93,0.44c1.54,0.25,3.08,0.48,4.64,0.67
		c3.11,0.37,6.23,0.67,9.39,0.76c1.58,0.05,3.17,0.01,4.76-0.05c1.57-0.16,3.24-0.16,4.71-0.9c-0.77,0.06-1.53-0.18-2.28-0.36
		c-0.75-0.18-1.5-0.39-2.24-0.61l-4.45-1.3l-8.89-2.56l-4.46-1.21c-1.39-0.35-3.19-0.89-5.25-0.87c-1.03,0-2.14,0.17-3.23,0.52
		c-0.53,0.19-1.04,0.42-1.52,0.69c0.43-3.49,0.51-6.85,0.58-9.94c0.2-8.84,0.65-12.33,4.63-14.03
		c13.34-5.67,35.54-33.56,63.19-69.43c10.1-13.1,18.96-24.61,24.34-30.35c13.41,4.93,74.91,27.5,93.82,33.48
		c5.83,1.84,19.88,14.14,34.83,28.61c-5.48,4.26-12,12.85-12.46,17.19c-0.22,2.07,0.8,3.07,1.42,3.49c0.78,0.52,3.55,3.2,6.49,6.03
		c7.15,6.91,13.64,13.04,18.59,16.67c-10.87,4.46-22.49,3.78-26.51,2.54c-7.22-2.22-33.18-25.11-36.07-28.98l-1.1-2.19
		c-0.13-0.91-0.19-1.86-0.19-2.83c0.02-2.54,0.27-5.14,0.67-7.71c-1.06,2.39-2,4.84-2.71,7.43c-0.28,1.03-0.49,2.1-0.63,3.22
		L226,159.2c-12.97,1.94-38.59-0.88-43.1-1.63c-0.33-0.05-0.75-0.12-1.6,0.05c-0.91-0.7-1.79-1.45-2.58-2.31
		c-1.85-2-3.5-4.27-4.79-6.78c-1.29-2.5-2.33-5.17-3.12-7.93c-0.78-2.76-1.36-5.6-1.6-8.48c-0.1,2.9,0.14,5.81,0.59,8.71
		c0.47,2.89,1.2,5.76,2.24,8.55c1.04,2.79,2.51,5.45,4.31,7.92c0.41,0.56,0.85,1.09,1.31,1.61c-6.17,2.7-20.04,10.4-53.15,31.85
		l0.16,0.24l-4.06,2.83c-1.35-0.77-2.71-1.49-4.11-2.15c-2.1-0.98-4.25-1.84-6.48-2.48c-2.22-0.63-4.49-1.16-6.81-1.23
		c-2.31-0.09-4.63,0.2-6.72,1.07c2.2-0.54,4.45-0.46,6.6-0.04c2.16,0.39,4.22,1.22,6.2,2.13c1.98,0.92,3.88,2.04,5.7,3.25
		c0.8,0.54,1.61,1.11,2.39,1.7l-10.59,7.38l22.17-5.83l0.04,0.05c0.06-0.04,0.11-0.07,0.17-0.11l0.42-0.11l-0.06-0.12l0.06,0.12
		c49.71-22.64,57.53-23.86,58.59-23.88c3.34,0,11.4,2.27,20.03,5.16c-2.86,1.05-5.39,2.58-7.54,4.61
		c-8.12,7.69-7.94,19.67-7.73,22.86c-6.78-1.56-15.59-1.65-23.18,4.6c-6.51,5.37-5.85,15.95-2.72,27.03l-44.96,21.49l-23.52-1.04
		l48.81,9.64c-1.44,10.1,1.69,21.85,2.65,24.24c0.26,0.66,2.01,4.66,5.94,13.65c1.94,4.44,4.48,10.25,7.38,16.91
		c-3.68,0.61-7.39,1.18-11.09,1.7c-5.53,0.77-11.06,1.44-16.62,2c-5.55,0.52-11.12,0.92-16.69,1.05
		c-5.56,0.04-11.19,0.01-16.59-1.56c5.19,2.23,10.91,2.97,16.5,3.62c5.63,0.56,11.28,0.85,16.93,1.01
		c4.25,0.09,8.51,0.11,12.77,0.07c-2.97,3.81-6.12,7.52-9.46,11.02c-2.14,2.26-4.4,4.39-6.8,6.36c-2.4,1.95-4.97,3.8-7.96,4.78
		c3.1-0.65,5.92-2.25,8.57-3.95c2.65-1.73,5.19-3.64,7.61-5.7c3.39-2.85,6.61-5.86,9.72-9.01l-0.26,0.9
		c10,2.89,22.73,16.79,33.24,36.29C195.7,394.58,205.55,426.99,199.33,447.01 M585.85,500.84c-6.45,27.08-54.56,92.69-79.19,108.01
		c-14.49,9-53.76,0.26-79.75-5.52c-20.1-4.47-28.82-6.25-32.83-4.1c-15.24-7.18-110.8-90.88-119.06-100.17
		c-0.62-0.7-1.85-2.06-3.54-3.94c-44.15-49.13-52.36-60.1-53.32-62.27c0.11,0.26,0.29,0.97,0.11,1.84c0.12-0.89-0.12-2.47-1.43-6.33
		l1.51-1.13c1.38-1.06,2.74-2.15,4.08-3.26c2.67-2.22,5.26-4.52,7.76-6.93c2.49-2.41,4.89-4.91,7.09-7.59
		c2.03-2.52,3.96-5.18,5.27-8.14c3.55,3.95,8.58,9.17,15.58,16.35c17.72,18.19,44.51,45.67,46.82,58.76h0
		c0.54,1.6,1.03,3.2,1.64,4.75c0.74,1.53,1.27,3.1,2.17,4.54c1.55,2.96,3.67,5.61,5.96,7.95c2.35,2.32,5.07,4.18,7.94,5.57
		c2.87,1.38,5.93,2.31,9.01,2.57c-2.94-0.93-5.6-2.47-7.92-4.32c-2.32-1.86-4.31-4.03-5.86-6.45c-1.49-2.46-2.73-5-3.45-7.74
		c-0.47-1.31-0.6-2.76-0.93-4.11c-0.2-1.39-0.29-2.82-0.45-4.19c-2.75-15.59-28.42-41.92-49.04-63.08
		c-5.45-5.59-11.31-11.6-15.47-16.22l1.87-1.39c1.38-1.06,2.74-2.15,4.07-3.26c2.67-2.22,5.26-4.53,7.76-6.93
		c2.49-2.41,4.89-4.92,7.1-7.59c2.17-2.69,4.24-5.52,5.55-8.72c-1.61,3.04-3.92,5.61-6.31,8.03c-2.42,2.4-5.01,4.62-7.69,6.73
		c-2.68,2.11-5.43,4.11-8.26,6.01c-1.41,0.95-2.84,1.88-4.27,2.77l-2.16,1.29l-0.23,0.13c-1.52-1.81-2.59-3.24-2.94-4.07
		c-0.02-0.16-0.05-0.34-0.08-0.53c1.52-2.16,3.11-4.29,4.82-6.34c2.71-3.26,5.61-6.4,8.75-9.3c-3.57,2.37-6.97,5.03-10.23,7.86
		c-1.51,1.31-2.97,2.67-4.4,4.08c-0.64-1.9-1.58-4.32-2.81-7.33c1.07-1.44,2.16-2.86,3.32-4.24c2.72-3.26,5.61-6.4,8.75-9.31
		c-3.57,2.37-6.97,5.03-10.23,7.86c-1.04,0.9-2.03,1.87-3.04,2.82c-6.43-15.2-19.32-42.77-41.31-88.58
		c-4.38-9.13-8.16-17.01-8.54-17.96c-0.49-1.29-1.39-3.22-2.63-5.89c-0.07-0.15-0.13-0.29-0.19-0.43c0.49,0.1,1.01,0.16,1.57,0.16
		c5.29,0,13.09-4.14,15.76-5.65c3.71-2.1,12.07-7.29,12.97-11.86c25.05,41.06,51.57,87.03,52.29,96.03
		c0.71,8.88,13.25,22.79,33.65,44.74c19.03,20.48,40.59,43.69,43.32,57.37l0,0c1.56,5.17,3.85,10.02,7,14.18
		c3.19,4.1,6.91,7.62,10.93,10.6c4.08,2.91,8.39,5.34,12.85,7.36c4.47,2,9.06,3.68,13.77,4.82c-4.49-1.79-8.75-4.08-12.79-6.63
		c-4.03-2.57-7.8-5.48-11.18-8.71c-3.33-3.29-6.18-6.94-8.41-10.83c-2.19-3.93-3.42-8.18-4.09-12.4l-4.04,0.81l4.04-0.81
		c-3.19-15.96-24.63-39.04-45.37-61.36c-14.51-15.61-30.95-33.31-31.47-39.79c-1.08-13.54-40.34-78.57-62.06-113.65
		c0.89,0.54,1.74,0.84,2.5,0.84c4.65,0,15.26-6.34,21.02-12.56c2.8-3.02,4.13-5.64,3.97-7.8c-0.33-4.24-5.2-12.35-9.04-18.17
		c23.07,10.09,40.45,46.76,44.2,55.19c-0.63,1.33-1.07,2.66-1.23,3.93c-0.76,6.08-1.09,54.52-1.09,61.8
		c0,12.57,34.55,58.35,50.39,73.53c11.45,10.98,41.71,14.92,70.98,18.74c15.98,2.08,31.08,4.05,41.29,6.97l0,0l4.56,0.91
		c1.51,0.35,2.98,0.79,4.49,1.19c1.46,0.47,2.91,0.99,4.37,1.53c1.37,0.65,2.87,1.18,4.17,1.97c2.74,1.42,5.26,3.25,7.38,5.52
		c0.55,0.56,0.99,1.19,1.5,1.79c0.41,0.65,0.92,1.28,1.26,1.99c0.77,1.38,1.37,2.88,1.57,4.49c0.14-1.62-0.13-3.3-0.62-4.89
		c-0.2-0.82-0.57-1.57-0.87-2.37c-0.39-0.74-0.73-1.53-1.18-2.24c-1.74-2.91-4.07-5.5-6.69-7.68c-1.26-1.19-2.7-2.07-4.08-3.12
		c-1.43-0.91-2.88-1.82-4.36-2.67c-1.5-0.77-3.01-1.6-4.55-2.32l-4.67-2.04c-10.8-3.08-26.19-5.09-42.49-7.22
		c-26.65-3.47-56.85-7.41-66.35-16.52c-0.89-0.85-1.82-1.79-2.77-2.77l0.51-0.38c1.39-1.06,2.74-2.15,4.07-3.26
		c2.67-2.22,5.26-4.52,7.76-6.93c2.49-2.41,4.89-4.92,7.09-7.59c2.17-2.69,4.25-5.52,5.55-8.72c-1.61,3.04-3.92,5.61-6.31,8.03
		c-2.42,2.4-5.01,4.62-7.69,6.73c-2.68,2.11-5.44,4.11-8.26,6.01c-1.41,0.95-2.83,1.88-4.27,2.77l-1.04,0.62
		c-1.28-1.39-2.6-2.87-3.95-4.42c1.39-1.94,2.84-3.86,4.39-5.71c2.71-3.26,5.61-6.4,8.75-9.3c-3.57,2.37-6.97,5.03-10.23,7.86
		c-1.72,1.5-3.4,3.07-5.02,4.69c-1.39-1.64-2.79-3.34-4.21-5.09c1.68-2.43,3.43-4.81,5.34-7.1c2.71-3.26,5.61-6.4,8.75-9.3
		c-3.57,2.37-6.97,5.03-10.23,7.86c-2.11,1.83-4.11,3.78-6.07,5.79c-15-18.91-30.04-41.8-30.04-47.37c0-7.09,0.12-22.88,0.33-36.65
		c6.51-0.21,17.13-2.03,19.18-6.71c1.77-4.06,3.25-17.67,1.55-25.88c0.63,0.56,1.28,1.23,1.94,2c3.75,15.41,10.73,29.54,20.18,41.65
		c1.83,5.09,3.44,9.98,4.74,14.26l0.18,0.6c-0.65,0.23-1.29,0.45-1.92,0.73c-1.68,0.76-3.33,1.7-4.63,3.04
		c-1.32,1.32-2.22,2.99-2.55,4.73c0.67-1.66,1.82-2.99,3.21-3.93c1.38-0.96,3.01-1.51,4.64-1.89c1.25-0.29,2.53-0.44,3.82-0.52
		c1.92,0.78,10.13,4.12,20.26,8.21c11.49,7.33,24.43,12.59,38.29,15.26c3.69,1.43,6.69,2.57,8.57,3.23
		c9.64,3.41,61.95,2.03,92.48-2.95c9.43,0.69,18.88,1.5,28.29,2.52c5.56,0.62,11.12,1.3,16.64,2.17c2.76,0.44,5.51,0.92,8.24,1.53
		c1.36,0.31,2.72,0.64,4.05,1.06c1.32,0.42,2.68,0.86,3.77,1.74c-1.02-0.99-2.36-1.56-3.64-2.11c-1.3-0.55-2.64-1-3.98-1.44
		c-2.68-0.86-5.4-1.6-8.13-2.3c-5.46-1.38-10.96-2.58-16.47-3.71c-4.7-0.95-9.41-1.84-14.13-2.7c2.53-0.8,4.52-1.66,5.81-2.57
		l0.05-0.03c5.4-1.48,10.82-2.92,16.26-4.24c4-0.95,8-1.89,12.03-2.67c4.03-0.73,8.08-1.57,12.2-1.4c-4.09-0.68-8.28-0.35-12.4-0.13
		c-4.14,0.27-8.25,0.71-12.37,1.16c-4.86,0.56-9.71,1.19-14.56,1.87l-0.18-0.24c-1.64-3.35-4.82-22.75,9.78-54.5
		c0.79-1.7,1.33-3.59,1.68-5.65c2.88-0.52,5.77-1.03,8.67-1.48c2.07-0.32,4.15-0.61,6.24-0.86c2.09-0.24,4.17-0.45,6.28-0.43
		c-2.08-0.36-4.21-0.49-6.32-0.59c-2.11-0.1-4.23-0.15-6.35-0.17c-2.71-0.02-5.42,0-8.14,0.04c0.53-8.01-1.2-18-3.26-29.08
		c0.06-1.45,0.11-2.89,0.11-4.35c0-11.64-1.81-22.84-5.15-33.37c-0.17-15.44,3.71-29.04,17.39-36.77c-0.02,0.16-0.07,0.29-0.08,0.47
		c-0.64,8.11,9.39,45.26,16.1,48.05c1.02,0.42,2.04,0.6,3.04,0.6c3.05,0,5.96-1.68,8.12-3.38c0.07,0.12,0.13,0.24,0.2,0.36
		l2.37,4.09c8.05,13.85,16.38,28.17,17.7,40.47c0.39,3.66-0.29,9.42-1.23,17.4c-0.12,1.02-0.25,2.08-0.37,3.17
		c-8.74,29.27-4.48,46.69-3.26,50.65c-0.11,18.25,0.82,40.57,3.84,68.03C581.75,376.37,592.47,473.02,585.85,500.84 M500.75,215.64
		c0-48.55-39.5-88.06-88.06-88.06c-48.56,0-88.06,39.5-88.06,88.06c0,48.56,39.5,88.06,88.06,88.06
		C461.25,303.7,500.75,264.19,500.75,215.64 M335.63,215.64c0-42.5,34.57-77.07,77.07-77.07c42.49,0,77.06,34.57,77.06,77.07
		c0,42.5-34.57,77.07-77.06,77.07C370.2,292.71,335.63,258.13,335.63,215.64 M477.4,215.64c0-35.68-29.03-64.71-64.7-64.71
		c-35.68,0-64.71,29.02-64.71,64.71c0,35.68,29.03,64.71,64.71,64.71C448.37,280.35,477.4,251.32,477.4,215.64 M362.52,215.64
		c0-27.67,22.51-50.17,50.18-50.17c27.67,0,50.17,22.51,50.17,50.17s-22.51,50.17-50.17,50.17
		C385.03,265.81,362.52,243.3,362.52,215.64 M412.7,263.75c-26.53,0-48.12-21.58-48.12-48.11c0-26.53,21.58-48.12,48.12-48.12
		c26.53,0,48.11,21.59,48.11,48.12C460.81,242.17,439.23,263.75,412.7,263.75 M461.84,79.79h-98.29V52.95h98.29V79.79z"/>
</g>
</svg>
